<svg width="32" height="32" viewBox="0 0 32 32" xmlns="http://www.w3.org/2000/svg">
  <!-- Left teal loop -->
  <path d="M 8 16 Q 4 8, 10 8 Q 16 8, 16 16 Q 16 24, 10 24 Q 4 24, 8 16 Z" fill="#028393" opacity="0.9"/>
  <ellipse cx="10" cy="16" rx="4" ry="6" fill="#ffffff"/>

  <!-- Right orange loop -->
  <path d="M 24 16 Q 28 8, 22 8 Q 16 8, 16 16 Q 16 24, 22 24 Q 28 24, 24 16 Z" fill="#f65625" opacity="0.9"/>
  <ellipse cx="22" cy="16" rx="4" ry="6" fill="#ffffff"/>

  <!-- Connection curves -->
  <path d="M 13 10 Q 16 8, 19 10" stroke="#028393" stroke-width="2" fill="none" opacity="0.8"/>
  <path d="M 13 22 Q 16 24, 19 22" stroke="#f65625" stroke-width="2" fill="none" opacity="0.8"/>

  <!-- Arrows -->
  <path d="M 18 9 L 20 10 L 18 11" fill="#028393" opacity="0.8"/>
  <path d="M 14 23 L 12 22 L 14 21" fill="#f65625" opacity="0.8"/>

  <!-- Center dots -->
  <circle cx="14" cy="16" r="2" fill="#faaa68"/>
  <circle cx="18" cy="16" r="2" fill="#ffffff"/>
</svg>
